# xmcd
#
# Track frame offsets: 
#        150
#        12853
#        26457
#        39049
#        52002
#        65497
#        79335
#        92606
#        106469
#        119982
#        132515
#        143982
#        157364
#        169752
#        181365
#        194369
#        208963
#        221491
#        233044
#        246634
#        257064
#        270319
#        282202
#        293982
#
# Disc length: 4088 seconds
#
# Revision: 4
# Processed by: cddbd v1.5.2PL0 Copyright (c) Steve Scherf et al.
# Submitted via: ExactAudioCopyFreeDBPlugin 1.0
#
DISCID=760ff618
DTITLE=B.B. King - B.B. King:  Eight Classic Albums [Real Gone Music]
DYEAR=2014
DGENRE=Blues
TTITLE0=Please Love Me
TTITLE1=You Upset Me Baby
TTITLE2=Everyday I Have the Blues
TTITLE3=Bad Luck
TTITLE4=Three O'Clock Blues
TTITLE5=Blind Love
TTITLE6=Woke Up This Morning (My Baby's Gone)
TTITLE7=You Know I Love You
TTITLE8=Sweet Little Angel
TTITLE9=Ten Long Years
TTITLE10=Did You Ever Love a Woman
TTITLE11=Crying Won't Help You
TTITLE12=Why Do Things Happen to Me
TTITLE13=Ruby Lee
TTITLE14=When My Heart Beats Like a Hammer
TTITLE15=Past Day
TTITLE16=Boogie Woogie Woman
TTITLE17=Early Every Morning
TTITLE18=I Want to Get Married
TTITLE19=That Ain't the Way to Do It
TTITLE20=Troubles, Troubles, Troubles
TTITLE21=Don't You Want a Man Like Me
TTITLE22=You Know I Go for You
TTITLE23=What Can I Do
EXTD=
EXTT0=
EXTT1=
EXTT2=
EXTT3=
EXTT4=
EXTT5=
EXTT6=
EXTT7=
EXTT8=
EXTT9=
EXTT10=
EXTT11=
EXTT12=
EXTT13=
EXTT14=
EXTT15=
EXTT16=
EXTT17=
EXTT18=
EXTT19=
EXTT20=
EXTT21=
EXTT22=
EXTT23=
PLAYORDER=
